{"Protocol":0,"Id":"9d88e33f4f99fc4652ba7bccc5b0981e","Path":"/data/tvshows/American Dad!/American Dad S01E05 Roger Codger 1080p DSNP WEB-DL DDP5 1 H 264-playWEB [ UIndex.org ].mkv","EncoderPath":null,"EncoderProtocol":null,"Type":0,"Container":"mkv","Size":1122254882,"Name":"American Dad S01E05 Roger Codger 1080p DSNP WEB-DL DDP5 1 H 264-playWEB [ UIndex.org ]","IsRemote":false,"ETag":"24cbeffdfef2a5e387643e31add75802","RunTimeTicks":13179520000,"ReadAtNativeFramerate":false,"IgnoreDts":false,"IgnoreIndex":false,"GenPtsInput":false,"SupportsTranscoding":true,"SupportsDirectStream":true,"SupportsDirectPlay":true,"IsInfiniteStream":false,"UseMostCompatibleTranscodingProfile":false,"RequiresOpening":false,"OpenToken":null,"RequiresClosing":false,"LiveStreamId":null,"BufferMs":null,"RequiresLooping":false,"SupportsProbing":true,"VideoType":0,"IsoType":null,"Video3DFormat":null,"MediaStreams":[{"Codec":"h264","CodecTag":null,"Language":"eng","ColorRange":null,"ColorSpace":"bt709","ColorTransfer":"bt709","ColorPrimaries":"bt709","DvVersionMajor":null,"DvVersionMinor":null,"DvProfile":null,"DvLevel":null,"RpuPresentFlag":null,"ElPresentFlag":null,"BlPresentFlag":null,"DvBlSignalCompatibilityId":null,"Rotation":null,"Comment":null,"TimeBase":"1/1000","CodecTimeBase":null,"Title":null,"Hdr10PlusPresentFlag":null,"VideoRange":1,"VideoRangeType":1,"VideoDoViTitle":null,"AudioSpatialFormat":0,"LocalizedUndefined":null,"LocalizedDefault":null,"LocalizedForced":null,"LocalizedExternal":null,"LocalizedHearingImpaired":null,"DisplayTitle":"1080p H264 SDR","NalLengthSize":"4","IsInterlaced":false,"IsAVC":true,"ChannelLayout":null,"BitRate":6812113,"BitDepth":8,"RefFrames":1,"PacketLength":null,"Channels":null,"SampleRate":null,"IsDefault":true,"IsForced":false,"IsHearingImpaired":false,"Height":1080,"Width":1920,"AverageFrameRate":23.976025,"RealFrameRate":23.976025,"ReferenceFrameRate":23.976025,"Profile":"High","Type":1,"AspectRatio":"16:9","Index":0,"Score":null,"IsExternal":false,"DeliveryMethod":null,"DeliveryUrl":null,"IsExternalUrl":null,"IsTextSubtitleStream":false,"SupportsExternalStream":false,"Path":null,"PixelFormat":"yuv420p","Level":40,"IsAnamorphic":false},{"Codec":"eac3","CodecTag":null,"Language":"eng","ColorRange":null,"ColorSpace":null,"ColorTransfer":null,"ColorPrimaries":null,"DvVersionMajor":null,"DvVersionMinor":null,"DvProfile":null,"DvLevel":null,"RpuPresentFlag":null,"ElPresentFlag":null,"BlPresentFlag":null,"DvBlSignalCompatibilityId":null,"Rotation":null,"Comment":null,"TimeBase":"1/1000","CodecTimeBase":null,"Title":null,"Hdr10PlusPresentFlag":null,"VideoRange":0,"VideoRangeType":0,"VideoDoViTitle":null,"AudioSpatialFormat":0,"LocalizedUndefined":null,"LocalizedDefault":"Default","LocalizedForced":null,"LocalizedExternal":"External","LocalizedHearingImpaired":null,"DisplayTitle":"English - Dolby Digital\u002B - 5.1 - Default","NalLengthSize":null,"IsInterlaced":false,"IsAVC":false,"ChannelLayout":"5.1","BitRate":256000,"BitDepth":null,"RefFrames":null,"PacketLength":null,"Channels":6,"SampleRate":48000,"IsDefault":true,"IsForced":false,"IsHearingImpaired":false,"Height":null,"Width":null,"AverageFrameRate":null,"RealFrameRate":null,"ReferenceFrameRate":null,"Profile":null,"Type":0,"AspectRatio":null,"Index":1,"Score":null,"IsExternal":false,"DeliveryMethod":null,"DeliveryUrl":null,"IsExternalUrl":null,"IsTextSubtitleStream":false,"SupportsExternalStream":false,"Path":null,"PixelFormat":null,"Level":0,"IsAnamorphic":null},{"Codec":"subrip","CodecTag":null,"Language":"eng","ColorRange":null,"ColorSpace":null,"ColorTransfer":null,"ColorPrimaries":null,"DvVersionMajor":null,"DvVersionMinor":null,"DvProfile":null,"DvLevel":null,"RpuPresentFlag":null,"ElPresentFlag":null,"BlPresentFlag":null,"DvBlSignalCompatibilityId":null,"Rotation":null,"Comment":null,"TimeBase":"1/1000","CodecTimeBase":null,"Title":null,"Hdr10PlusPresentFlag":null,"VideoRange":0,"VideoRangeType":0,"VideoDoViTitle":null,"AudioSpatialFormat":0,"LocalizedUndefined":"Undefined","LocalizedDefault":"Default","LocalizedForced":"Forced","LocalizedExternal":"External","LocalizedHearingImpaired":"Hearing Impaired","DisplayTitle":"English - SUBRIP","NalLengthSize":null,"IsInterlaced":false,"IsAVC":false,"ChannelLayout":null,"BitRate":null,"BitDepth":null,"RefFrames":null,"PacketLength":null,"Channels":null,"SampleRate":null,"IsDefault":false,"IsForced":false,"IsHearingImpaired":false,"Height":0,"Width":0,"AverageFrameRate":null,"RealFrameRate":null,"ReferenceFrameRate":null,"Profile":null,"Type":2,"AspectRatio":null,"Index":2,"Score":null,"IsExternal":false,"DeliveryMethod":null,"DeliveryUrl":null,"IsExternalUrl":null,"IsTextSubtitleStream":true,"SupportsExternalStream":true,"Path":null,"PixelFormat":null,"Level":0,"IsAnamorphic":null},{"Codec":"subrip","CodecTag":null,"Language":"eng","ColorRange":null,"ColorSpace":null,"ColorTransfer":null,"ColorPrimaries":null,"DvVersionMajor":null,"DvVersionMinor":null,"DvProfile":null,"DvLevel":null,"RpuPresentFlag":null,"ElPresentFlag":null,"BlPresentFlag":null,"DvBlSignalCompatibilityId":null,"Rotation":null,"Comment":null,"TimeBase":"1/1000","CodecTimeBase":null,"Title":"SDH","Hdr10PlusPresentFlag":null,"VideoRange":0,"VideoRangeType":0,"VideoDoViTitle":null,"AudioSpatialFormat":0,"LocalizedUndefined":"Undefined","LocalizedDefault":"Default","LocalizedForced":"Forced","LocalizedExternal":"External","LocalizedHearingImpaired":"Hearing Impaired","DisplayTitle":"SDH - English - Hearing Impaired - SUBRIP","NalLengthSize":null,"IsInterlaced":false,"IsAVC":false,"ChannelLayout":null,"BitRate":null,"BitDepth":null,"RefFrames":null,"PacketLength":null,"Channels":null,"SampleRate":null,"IsDefault":false,"IsForced":false,"IsHearingImpaired":true,"Height":0,"Width":0,"AverageFrameRate":null,"RealFrameRate":null,"ReferenceFrameRate":null,"Profile":null,"Type":2,"AspectRatio":null,"Index":3,"Score":null,"IsExternal":false,"DeliveryMethod":null,"DeliveryUrl":null,"IsExternalUrl":null,"IsTextSubtitleStream":true,"SupportsExternalStream":true,"Path":null,"PixelFormat":null,"Level":0,"IsAnamorphic":null},{"Codec":"subrip","CodecTag":null,"Language":"dan","ColorRange":null,"ColorSpace":null,"ColorTransfer":null,"ColorPrimaries":null,"DvVersionMajor":null,"DvVersionMinor":null,"DvProfile":null,"DvLevel":null,"RpuPresentFlag":null,"ElPresentFlag":null,"BlPresentFlag":null,"DvBlSignalCompatibilityId":null,"Rotation":null,"Comment":null,"TimeBase":"1/1000","CodecTimeBase":null,"Title":null,"Hdr10PlusPresentFlag":null,"VideoRange":0,"VideoRangeType":0,"VideoDoViTitle":null,"AudioSpatialFormat":0,"LocalizedUndefined":"Undefined","LocalizedDefault":"Default","LocalizedForced":"Forced","LocalizedExternal":"External","LocalizedHearingImpaired":"Hearing Impaired","DisplayTitle":"Danish - SUBRIP","NalLengthSize":null,"IsInterlaced":false,"IsAVC":false,"ChannelLayout":null,"BitRate":null,"BitDepth":null,"RefFrames":null,"PacketLength":null,"Channels":null,"SampleRate":null,"IsDefault":false,"IsForced":false,"IsHearingImpaired":false,"Height":0,"Width":0,"AverageFrameRate":null,"RealFrameRate":null,"ReferenceFrameRate":null,"Profile":null,"Type":2,"AspectRatio":null,"Index":4,"Score":null,"IsExternal":false,"DeliveryMethod":null,"DeliveryUrl":null,"IsExternalUrl":null,"IsTextSubtitleStream":true,"SupportsExternalStream":true,"Path":null,"PixelFormat":null,"Level":0,"IsAnamorphic":null},{"Codec":"subrip","CodecTag":null,"Language":"deu","ColorRange":null,"ColorSpace":null,"ColorTransfer":null,"ColorPrimaries":null,"DvVersionMajor":null,"DvVersionMinor":null,"DvProfile":null,"DvLevel":null,"RpuPresentFlag":null,"ElPresentFlag":null,"BlPresentFlag":null,"DvBlSignalCompatibilityId":null,"Rotation":null,"Comment":null,"TimeBase":"1/1000","CodecTimeBase":null,"Title":null,"Hdr10PlusPresentFlag":null,"VideoRange":0,"VideoRangeType":0,"VideoDoViTitle":null,"AudioSpatialFormat":0,"LocalizedUndefined":"Undefined","LocalizedDefault":"Default","LocalizedForced":"Forced","LocalizedExternal":"External","LocalizedHearingImpaired":"Hearing Impaired","DisplayTitle":"German - SUBRIP","NalLengthSize":null,"IsInterlaced":false,"IsAVC":false,"ChannelLayout":null,"BitRate":null,"BitDepth":null,"RefFrames":null,"PacketLength":null,"Channels":null,"SampleRate":null,"IsDefault":false,"IsForced":false,"IsHearingImpaired":false,"Height":0,"Width":0,"AverageFrameRate":null,"RealFrameRate":null,"ReferenceFrameRate":null,"Profile":null,"Type":2,"AspectRatio":null,"Index":5,"Score":null,"IsExternal":false,"DeliveryMethod":null,"DeliveryUrl":null,"IsExternalUrl":null,"IsTextSubtitleStream":true,"SupportsExternalStream":true,"Path":null,"PixelFormat":null,"Level":0,"IsAnamorphic":null},{"Codec":"subrip","CodecTag":null,"Language":"ell","ColorRange":null,"ColorSpace":null,"ColorTransfer":null,"ColorPrimaries":null,"DvVersionMajor":null,"DvVersionMinor":null,"DvProfile":null,"DvLevel":null,"RpuPresentFlag":null,"ElPresentFlag":null,"BlPresentFlag":null,"DvBlSignalCompatibilityId":null,"Rotation":null,"Comment":null,"TimeBase":"1/1000","CodecTimeBase":null,"Title":null,"Hdr10PlusPresentFlag":null,"VideoRange":0,"VideoRangeType":0,"VideoDoViTitle":null,"AudioSpatialFormat":0,"LocalizedUndefined":"Undefined","LocalizedDefault":"Default","LocalizedForced":"Forced","LocalizedExternal":"External","LocalizedHearingImpaired":"Hearing Impaired","DisplayTitle":"Greek - SUBRIP","NalLengthSize":null,"IsInterlaced":false,"IsAVC":false,"ChannelLayout":null,"BitRate":null,"BitDepth":null,"RefFrames":null,"PacketLength":null,"Channels":null,"SampleRate":null,"IsDefault":false,"IsForced":false,"IsHearingImpaired":false,"Height":0,"Width":0,"AverageFrameRate":null,"RealFrameRate":null,"ReferenceFrameRate":null,"Profile":null,"Type":2,"AspectRatio":null,"Index":6,"Score":null,"IsExternal":false,"DeliveryMethod":null,"DeliveryUrl":null,"IsExternalUrl":null,"IsTextSubtitleStream":true,"SupportsExternalStream":true,"Path":null,"PixelFormat":null,"Level":0,"IsAnamorphic":null},{"Codec":"subrip","CodecTag":null,"Language":"spa","ColorRange":null,"ColorSpace":null,"ColorTransfer":null,"ColorPrimaries":null,"DvVersionMajor":null,"DvVersionMinor":null,"DvProfile":null,"DvLevel":null,"RpuPresentFlag":null,"ElPresentFlag":null,"BlPresentFlag":null,"DvBlSignalCompatibilityId":null,"Rotation":null,"Comment":null,"TimeBase":"1/1000","CodecTimeBase":null,"Title":"Latin America","Hdr10PlusPresentFlag":null,"VideoRange":0,"VideoRangeType":0,"VideoDoViTitle":null,"AudioSpatialFormat":0,"LocalizedUndefined":"Undefined","LocalizedDefault":"Default","LocalizedForced":"Forced","LocalizedExternal":"External","LocalizedHearingImpaired":"Hearing Impaired","DisplayTitle":"Latin America - Spanish - SUBRIP","NalLengthSize":null,"IsInterlaced":false,"IsAVC":false,"ChannelLayout":null,"BitRate":null,"BitDepth":null,"RefFrames":null,"PacketLength":null,"Channels":null,"SampleRate":null,"IsDefault":false,"IsForced":false,"IsHearingImpaired":false,"Height":0,"Width":0,"AverageFrameRate":null,"RealFrameRate":null,"ReferenceFrameRate":null,"Profile":null,"Type":2,"AspectRatio":null,"Index":7,"Score":null,"IsExternal":false,"DeliveryMethod":null,"DeliveryUrl":null,"IsExternalUrl":null,"IsTextSubtitleStream":true,"SupportsExternalStream":true,"Path":null,"PixelFormat":null,"Level":0,"IsAnamorphic":null},{"Codec":"subrip","CodecTag":null,"Language":"spa","ColorRange":null,"ColorSpace":null,"ColorTransfer":null,"ColorPrimaries":null,"DvVersionMajor":null,"DvVersionMinor":null,"DvProfile":null,"DvLevel":null,"RpuPresentFlag":null,"ElPresentFlag":null,"BlPresentFlag":null,"DvBlSignalCompatibilityId":null,"Rotation":null,"Comment":null,"TimeBase":"1/1000","CodecTimeBase":null,"Title":null,"Hdr10PlusPresentFlag":null,"VideoRange":0,"VideoRangeType":0,"VideoDoViTitle":null,"AudioSpatialFormat":0,"LocalizedUndefined":"Undefined","LocalizedDefault":"Default","LocalizedForced":"Forced","LocalizedExternal":"External","LocalizedHearingImpaired":"Hearing Impaired","DisplayTitle":"Spanish - SUBRIP","NalLengthSize":null,"IsInterlaced":false,"IsAVC":false,"ChannelLayout":null,"BitRate":null,"BitDepth":null,"RefFrames":null,"PacketLength":null,"Channels":null,"SampleRate":null,"IsDefault":false,"IsForced":false,"IsHearingImpaired":false,"Height":0,"Width":0,"AverageFrameRate":null,"RealFrameRate":null,"ReferenceFrameRate":null,"Profile":null,"Type":2,"AspectRatio":null,"Index":8,"Score":null,"IsExternal":false,"DeliveryMethod":null,"DeliveryUrl":null,"IsExternalUrl":null,"IsTextSubtitleStream":true,"SupportsExternalStream":true,"Path":null,"PixelFormat":null,"Level":0,"IsAnamorphic":null},{"Codec":"subrip","CodecTag":null,"Language":"fin","ColorRange":null,"ColorSpace":null,"ColorTransfer":null,"ColorPrimaries":null,"DvVersionMajor":null,"DvVersionMinor":null,"DvProfile":null,"DvLevel":null,"RpuPresentFlag":null,"ElPresentFlag":null,"BlPresentFlag":null,"DvBlSignalCompatibilityId":null,"Rotation":null,"Comment":null,"TimeBase":"1/1000","CodecTimeBase":null,"Title":null,"Hdr10PlusPresentFlag":null,"VideoRange":0,"VideoRangeType":0,"VideoDoViTitle":null,"AudioSpatialFormat":0,"LocalizedUndefined":"Undefined","LocalizedDefault":"Default","LocalizedForced":"Forced","LocalizedExternal":"External","LocalizedHearingImpaired":"Hearing Impaired","DisplayTitle":"Finnish - SUBRIP","NalLengthSize":null,"IsInterlaced":false,"IsAVC":false,"ChannelLayout":null,"BitRate":null,"BitDepth":null,"RefFrames":null,"PacketLength":null,"Channels":null,"SampleRate":null,"IsDefault":false,"IsForced":false,"IsHearingImpaired":false,"Height":0,"Width":0,"AverageFrameRate":null,"RealFrameRate":null,"ReferenceFrameRate":null,"Profile":null,"Type":2,"AspectRatio":null,"Index":9,"Score":null,"IsExternal":false,"DeliveryMethod":null,"DeliveryUrl":null,"IsExternalUrl":null,"IsTextSubtitleStream":true,"SupportsExternalStream":true,"Path":null,"PixelFormat":null,"Level":0,"IsAnamorphic":null},{"Codec":"subrip","CodecTag":null,"Language":"fra","ColorRange":null,"ColorSpace":null,"ColorTransfer":null,"ColorPrimaries":null,"DvVersionMajor":null,"DvVersionMinor":null,"DvProfile":null,"DvLevel":null,"RpuPresentFlag":null,"ElPresentFlag":null,"BlPresentFlag":null,"DvBlSignalCompatibilityId":null,"Rotation":null,"Comment":null,"TimeBase":"1/1000","CodecTimeBase":null,"Title":null,"Hdr10PlusPresentFlag":null,"VideoRange":0,"VideoRangeType":0,"VideoDoViTitle":null,"AudioSpatialFormat":0,"LocalizedUndefined":"Undefined","LocalizedDefault":"Default","LocalizedForced":"Forced","LocalizedExternal":"External","LocalizedHearingImpaired":"Hearing Impaired","DisplayTitle":"French - SUBRIP","NalLengthSize":null,"IsInterlaced":false,"IsAVC":false,"ChannelLayout":null,"BitRate":null,"BitDepth":null,"RefFrames":null,"PacketLength":null,"Channels":null,"SampleRate":null,"IsDefault":false,"IsForced":false,"IsHearingImpaired":false,"Height":0,"Width":0,"AverageFrameRate":null,"RealFrameRate":null,"ReferenceFrameRate":null,"Profile":null,"Type":2,"AspectRatio":null,"Index":10,"Score":null,"IsExternal":false,"DeliveryMethod":null,"DeliveryUrl":null,"IsExternalUrl":null,"IsTextSubtitleStream":true,"SupportsExternalStream":true,"Path":null,"PixelFormat":null,"Level":0,"IsAnamorphic":null},{"Codec":"subrip","CodecTag":null,"Language":"hun","ColorRange":null,"ColorSpace":null,"ColorTransfer":null,"ColorPrimaries":null,"DvVersionMajor":null,"DvVersionMinor":null,"DvProfile":null,"DvLevel":null,"RpuPresentFlag":null,"ElPresentFlag":null,"BlPresentFlag":null,"DvBlSignalCompatibilityId":null,"Rotation":null,"Comment":null,"TimeBase":"1/1000","CodecTimeBase":null,"Title":null,"Hdr10PlusPresentFlag":null,"VideoRange":0,"VideoRangeType":0,"VideoDoViTitle":null,"AudioSpatialFormat":0,"LocalizedUndefined":"Undefined","LocalizedDefault":"Default","LocalizedForced":"Forced","LocalizedExternal":"External","LocalizedHearingImpaired":"Hearing Impaired","DisplayTitle":"Hungarian - SUBRIP","NalLengthSize":null,"IsInterlaced":false,"IsAVC":false,"ChannelLayout":null,"BitRate":null,"BitDepth":null,"RefFrames":null,"PacketLength":null,"Channels":null,"SampleRate":null,"IsDefault":false,"IsForced":false,"IsHearingImpaired":false,"Height":0,"Width":0,"AverageFrameRate":null,"RealFrameRate":null,"ReferenceFrameRate":null,"Profile":null,"Type":2,"AspectRatio":null,"Index":11,"Score":null,"IsExternal":false,"DeliveryMethod":null,"DeliveryUrl":null,"IsExternalUrl":null,"IsTextSubtitleStream":true,"SupportsExternalStream":true,"Path":null,"PixelFormat":null,"Level":0,"IsAnamorphic":null},{"Codec":"subrip","CodecTag":null,"Language":"ita","ColorRange":null,"ColorSpace":null,"ColorTransfer":null,"ColorPrimaries":null,"DvVersionMajor":null,"DvVersionMinor":null,"DvProfile":null,"DvLevel":null,"RpuPresentFlag":null,"ElPresentFlag":null,"BlPresentFlag":null,"DvBlSignalCompatibilityId":null,"Rotation":null,"Comment":null,"TimeBase":"1/1000","CodecTimeBase":null,"Title":null,"Hdr10PlusPresentFlag":null,"VideoRange":0,"VideoRangeType":0,"VideoDoViTitle":null,"AudioSpatialFormat":0,"LocalizedUndefined":"Undefined","LocalizedDefault":"Default","LocalizedForced":"Forced","LocalizedExternal":"External","LocalizedHearingImpaired":"Hearing Impaired","DisplayTitle":"Italian - SUBRIP","NalLengthSize":null,"IsInterlaced":false,"IsAVC":false,"ChannelLayout":null,"BitRate":null,"BitDepth":null,"RefFrames":null,"PacketLength":null,"Channels":null,"SampleRate":null,"IsDefault":false,"IsForced":false,"IsHearingImpaired":false,"Height":0,"Width":0,"AverageFrameRate":null,"RealFrameRate":null,"ReferenceFrameRate":null,"Profile":null,"Type":2,"AspectRatio":null,"Index":12,"Score":null,"IsExternal":false,"DeliveryMethod":null,"DeliveryUrl":null,"IsExternalUrl":null,"IsTextSubtitleStream":true,"SupportsExternalStream":true,"Path":null,"PixelFormat":null,"Level":0,"IsAnamorphic":null},{"Codec":"subrip","CodecTag":null,"Language":"jpn","ColorRange":null,"ColorSpace":null,"ColorTransfer":null,"ColorPrimaries":null,"DvVersionMajor":null,"DvVersionMinor":null,"DvProfile":null,"DvLevel":null,"RpuPresentFlag":null,"ElPresentFlag":null,"BlPresentFlag":null,"DvBlSignalCompatibilityId":null,"Rotation":null,"Comment":null,"TimeBase":"1/1000","CodecTimeBase":null,"Title":null,"Hdr10PlusPresentFlag":null,"VideoRange":0,"VideoRangeType":0,"VideoDoViTitle":null,"AudioSpatialFormat":0,"LocalizedUndefined":"Undefined","LocalizedDefault":"Default","LocalizedForced":"Forced","LocalizedExternal":"External","LocalizedHearingImpaired":"Hearing Impaired","DisplayTitle":"Japanese - SUBRIP","NalLengthSize":null,"IsInterlaced":false,"IsAVC":false,"ChannelLayout":null,"BitRate":null,"BitDepth":null,"RefFrames":null,"PacketLength":null,"Channels":null,"SampleRate":null,"IsDefault":false,"IsForced":false,"IsHearingImpaired":false,"Height":0,"Width":0,"AverageFrameRate":null,"RealFrameRate":null,"ReferenceFrameRate":null,"Profile":null,"Type":2,"AspectRatio":null,"Index":13,"Score":null,"IsExternal":false,"DeliveryMethod":null,"DeliveryUrl":null,"IsExternalUrl":null,"IsTextSubtitleStream":true,"SupportsExternalStream":true,"Path":null,"PixelFormat":null,"Level":0,"IsAnamorphic":null},{"Codec":"subrip","CodecTag":null,"Language":"kor","ColorRange":null,"ColorSpace":null,"ColorTransfer":null,"ColorPrimaries":null,"DvVersionMajor":null,"DvVersionMinor":null,"DvProfile":null,"DvLevel":null,"RpuPresentFlag":null,"ElPresentFlag":null,"BlPresentFlag":null,"DvBlSignalCompatibilityId":null,"Rotation":null,"Comment":null,"TimeBase":"1/1000","CodecTimeBase":null,"Title":null,"Hdr10PlusPresentFlag":null,"VideoRange":0,"VideoRangeType":0,"VideoDoViTitle":null,"AudioSpatialFormat":0,"LocalizedUndefined":"Undefined","LocalizedDefault":"Default","LocalizedForced":"Forced","LocalizedExternal":"External","LocalizedHearingImpaired":"Hearing Impaired","DisplayTitle":"Korean - SUBRIP","NalLengthSize":null,"IsInterlaced":false,"IsAVC":false,"ChannelLayout":null,"BitRate":null,"BitDepth":null,"RefFrames":null,"PacketLength":null,"Channels":null,"SampleRate":null,"IsDefault":false,"IsForced":false,"IsHearingImpaired":false,"Height":0,"Width":0,"AverageFrameRate":null,"RealFrameRate":null,"ReferenceFrameRate":null,"Profile":null,"Type":2,"AspectRatio":null,"Index":14,"Score":null,"IsExternal":false,"DeliveryMethod":null,"DeliveryUrl":null,"IsExternalUrl":null,"IsTextSubtitleStream":true,"SupportsExternalStream":true,"Path":null,"PixelFormat":null,"Level":0,"IsAnamorphic":null},{"Codec":"subrip","CodecTag":null,"Language":"nld","ColorRange":null,"ColorSpace":null,"ColorTransfer":null,"ColorPrimaries":null,"DvVersionMajor":null,"DvVersionMinor":null,"DvProfile":null,"DvLevel":null,"RpuPresentFlag":null,"ElPresentFlag":null,"BlPresentFlag":null,"DvBlSignalCompatibilityId":null,"Rotation":null,"Comment":null,"TimeBase":"1/1000","CodecTimeBase":null,"Title":null,"Hdr10PlusPresentFlag":null,"VideoRange":0,"VideoRangeType":0,"VideoDoViTitle":null,"AudioSpatialFormat":0,"LocalizedUndefined":"Undefined","LocalizedDefault":"Default","LocalizedForced":"Forced","LocalizedExternal":"External","LocalizedHearingImpaired":"Hearing Impaired","DisplayTitle":"Dutch - SUBRIP","NalLengthSize":null,"IsInterlaced":false,"IsAVC":false,"ChannelLayout":null,"BitRate":null,"BitDepth":null,"RefFrames":null,"PacketLength":null,"Channels":null,"SampleRate":null,"IsDefault":false,"IsForced":false,"IsHearingImpaired":false,"Height":0,"Width":0,"AverageFrameRate":null,"RealFrameRate":null,"ReferenceFrameRate":null,"Profile":null,"Type":2,"AspectRatio":null,"Index":15,"Score":null,"IsExternal":false,"DeliveryMethod":null,"DeliveryUrl":null,"IsExternalUrl":null,"IsTextSubtitleStream":true,"SupportsExternalStream":true,"Path":null,"PixelFormat":null,"Level":0,"IsAnamorphic":null},{"Codec":"subrip","CodecTag":null,"Language":"nor","ColorRange":null,"ColorSpace":null,"ColorTransfer":null,"ColorPrimaries":null,"DvVersionMajor":null,"DvVersionMinor":null,"DvProfile":null,"DvLevel":null,"RpuPresentFlag":null,"ElPresentFlag":null,"BlPresentFlag":null,"DvBlSignalCompatibilityId":null,"Rotation":null,"Comment":null,"TimeBase":"1/1000","CodecTimeBase":null,"Title":null,"Hdr10PlusPresentFlag":null,"VideoRange":0,"VideoRangeType":0,"VideoDoViTitle":null,"AudioSpatialFormat":0,"LocalizedUndefined":"Undefined","LocalizedDefault":"Default","LocalizedForced":"Forced","LocalizedExternal":"External","LocalizedHearingImpaired":"Hearing Impaired","DisplayTitle":"Norwegian - SUBRIP","NalLengthSize":null,"IsInterlaced":false,"IsAVC":false,"ChannelLayout":null,"BitRate":null,"BitDepth":null,"RefFrames":null,"PacketLength":null,"Channels":null,"SampleRate":null,"IsDefault":false,"IsForced":false,"IsHearingImpaired":false,"Height":0,"Width":0,"AverageFrameRate":null,"RealFrameRate":null,"ReferenceFrameRate":null,"Profile":null,"Type":2,"AspectRatio":null,"Index":16,"Score":null,"IsExternal":false,"DeliveryMethod":null,"DeliveryUrl":null,"IsExternalUrl":null,"IsTextSubtitleStream":true,"SupportsExternalStream":true,"Path":null,"PixelFormat":null,"Level":0,"IsAnamorphic":null},{"Codec":"subrip","CodecTag":null,"Language":"pol","ColorRange":null,"ColorSpace":null,"ColorTransfer":null,"ColorPrimaries":null,"DvVersionMajor":null,"DvVersionMinor":null,"DvProfile":null,"DvLevel":null,"RpuPresentFlag":null,"ElPresentFlag":null,"BlPresentFlag":null,"DvBlSignalCompatibilityId":null,"Rotation":null,"Comment":null,"TimeBase":"1/1000","CodecTimeBase":null,"Title":null,"Hdr10PlusPresentFlag":null,"VideoRange":0,"VideoRangeType":0,"VideoDoViTitle":null,"AudioSpatialFormat":0,"LocalizedUndefined":"Undefined","LocalizedDefault":"Default","LocalizedForced":"Forced","LocalizedExternal":"External","LocalizedHearingImpaired":"Hearing Impaired","DisplayTitle":"Polish - SUBRIP","NalLengthSize":null,"IsInterlaced":false,"IsAVC":false,"ChannelLayout":null,"BitRate":null,"BitDepth":null,"RefFrames":null,"PacketLength":null,"Channels":null,"SampleRate":null,"IsDefault":false,"IsForced":false,"IsHearingImpaired":false,"Height":0,"Width":0,"AverageFrameRate":null,"RealFrameRate":null,"ReferenceFrameRate":null,"Profile":null,"Type":2,"AspectRatio":null,"Index":17,"Score":null,"IsExternal":false,"DeliveryMethod":null,"DeliveryUrl":null,"IsExternalUrl":null,"IsTextSubtitleStream":true,"SupportsExternalStream":true,"Path":null,"PixelFormat":null,"Level":0,"IsAnamorphic":null},{"Codec":"subrip","CodecTag":null,"Language":"por","ColorRange":null,"ColorSpace":null,"ColorTransfer":null,"ColorPrimaries":null,"DvVersionMajor":null,"DvVersionMinor":null,"DvProfile":null,"DvLevel":null,"RpuPresentFlag":null,"ElPresentFlag":null,"BlPresentFlag":null,"DvBlSignalCompatibilityId":null,"Rotation":null,"Comment":null,"TimeBase":"1/1000","CodecTimeBase":null,"Title":"Brazil","Hdr10PlusPresentFlag":null,"VideoRange":0,"VideoRangeType":0,"VideoDoViTitle":null,"AudioSpatialFormat":0,"LocalizedUndefined":"Undefined","LocalizedDefault":"Default","LocalizedForced":"Forced","LocalizedExternal":"External","LocalizedHearingImpaired":"Hearing Impaired","DisplayTitle":"Brazil - Portuguese - SUBRIP","NalLengthSize":null,"IsInterlaced":false,"IsAVC":false,"ChannelLayout":null,"BitRate":null,"BitDepth":null,"RefFrames":null,"PacketLength":null,"Channels":null,"SampleRate":null,"IsDefault":false,"IsForced":false,"IsHearingImpaired":false,"Height":0,"Width":0,"AverageFrameRate":null,"RealFrameRate":null,"ReferenceFrameRate":null,"Profile":null,"Type":2,"AspectRatio":null,"Index":18,"Score":null,"IsExternal":false,"DeliveryMethod":null,"DeliveryUrl":null,"IsExternalUrl":null,"IsTextSubtitleStream":true,"SupportsExternalStream":true,"Path":null,"PixelFormat":null,"Level":0,"IsAnamorphic":null},{"Codec":"subrip","CodecTag":null,"Language":"ron","ColorRange":null,"ColorSpace":null,"ColorTransfer":null,"ColorPrimaries":null,"DvVersionMajor":null,"DvVersionMinor":null,"DvProfile":null,"DvLevel":null,"RpuPresentFlag":null,"ElPresentFlag":null,"BlPresentFlag":null,"DvBlSignalCompatibilityId":null,"Rotation":null,"Comment":null,"TimeBase":"1/1000","CodecTimeBase":null,"Title":null,"Hdr10PlusPresentFlag":null,"VideoRange":0,"VideoRangeType":0,"VideoDoViTitle":null,"AudioSpatialFormat":0,"LocalizedUndefined":"Undefined","LocalizedDefault":"Default","LocalizedForced":"Forced","LocalizedExternal":"External","LocalizedHearingImpaired":"Hearing Impaired","DisplayTitle":"Romanian - SUBRIP","NalLengthSize":null,"IsInterlaced":false,"IsAVC":false,"ChannelLayout":null,"BitRate":null,"BitDepth":null,"RefFrames":null,"PacketLength":null,"Channels":null,"SampleRate":null,"IsDefault":false,"IsForced":false,"IsHearingImpaired":false,"Height":0,"Width":0,"AverageFrameRate":null,"RealFrameRate":null,"ReferenceFrameRate":null,"Profile":null,"Type":2,"AspectRatio":null,"Index":19,"Score":null,"IsExternal":false,"DeliveryMethod":null,"DeliveryUrl":null,"IsExternalUrl":null,"IsTextSubtitleStream":true,"SupportsExternalStream":true,"Path":null,"PixelFormat":null,"Level":0,"IsAnamorphic":null},{"Codec":"subrip","CodecTag":null,"Language":"swe","ColorRange":null,"ColorSpace":null,"ColorTransfer":null,"ColorPrimaries":null,"DvVersionMajor":null,"DvVersionMinor":null,"DvProfile":null,"DvLevel":null,"RpuPresentFlag":null,"ElPresentFlag":null,"BlPresentFlag":null,"DvBlSignalCompatibilityId":null,"Rotation":null,"Comment":null,"TimeBase":"1/1000","CodecTimeBase":null,"Title":null,"Hdr10PlusPresentFlag":null,"VideoRange":0,"VideoRangeType":0,"VideoDoViTitle":null,"AudioSpatialFormat":0,"LocalizedUndefined":"Undefined","LocalizedDefault":"Default","LocalizedForced":"Forced","LocalizedExternal":"External","LocalizedHearingImpaired":"Hearing Impaired","DisplayTitle":"Swedish - SUBRIP","NalLengthSize":null,"IsInterlaced":false,"IsAVC":false,"ChannelLayout":null,"BitRate":null,"BitDepth":null,"RefFrames":null,"PacketLength":null,"Channels":null,"SampleRate":null,"IsDefault":false,"IsForced":false,"IsHearingImpaired":false,"Height":0,"Width":0,"AverageFrameRate":null,"RealFrameRate":null,"ReferenceFrameRate":null,"Profile":null,"Type":2,"AspectRatio":null,"Index":20,"Score":null,"IsExternal":false,"DeliveryMethod":null,"DeliveryUrl":null,"IsExternalUrl":null,"IsTextSubtitleStream":true,"SupportsExternalStream":true,"Path":null,"PixelFormat":null,"Level":0,"IsAnamorphic":null},{"Codec":"subrip","CodecTag":null,"Language":"tur","ColorRange":null,"ColorSpace":null,"ColorTransfer":null,"ColorPrimaries":null,"DvVersionMajor":null,"DvVersionMinor":null,"DvProfile":null,"DvLevel":null,"RpuPresentFlag":null,"ElPresentFlag":null,"BlPresentFlag":null,"DvBlSignalCompatibilityId":null,"Rotation":null,"Comment":null,"TimeBase":"1/1000","CodecTimeBase":null,"Title":null,"Hdr10PlusPresentFlag":null,"VideoRange":0,"VideoRangeType":0,"VideoDoViTitle":null,"AudioSpatialFormat":0,"LocalizedUndefined":"Undefined","LocalizedDefault":"Default","LocalizedForced":"Forced","LocalizedExternal":"External","LocalizedHearingImpaired":"Hearing Impaired","DisplayTitle":"Turkish - SUBRIP","NalLengthSize":null,"IsInterlaced":false,"IsAVC":false,"ChannelLayout":null,"BitRate":null,"BitDepth":null,"RefFrames":null,"PacketLength":null,"Channels":null,"SampleRate":null,"IsDefault":false,"IsForced":false,"IsHearingImpaired":false,"Height":0,"Width":0,"AverageFrameRate":null,"RealFrameRate":null,"ReferenceFrameRate":null,"Profile":null,"Type":2,"AspectRatio":null,"Index":21,"Score":null,"IsExternal":false,"DeliveryMethod":null,"DeliveryUrl":null,"IsExternalUrl":null,"IsTextSubtitleStream":true,"SupportsExternalStream":true,"Path":null,"PixelFormat":null,"Level":0,"IsAnamorphic":null},{"Codec":"subrip","CodecTag":null,"Language":"zho","ColorRange":null,"ColorSpace":null,"ColorTransfer":null,"ColorPrimaries":null,"DvVersionMajor":null,"DvVersionMinor":null,"DvProfile":null,"DvLevel":null,"RpuPresentFlag":null,"ElPresentFlag":null,"BlPresentFlag":null,"DvBlSignalCompatibilityId":null,"Rotation":null,"Comment":null,"TimeBase":"1/1000","CodecTimeBase":null,"Title":"Simplified","Hdr10PlusPresentFlag":null,"VideoRange":0,"VideoRangeType":0,"VideoDoViTitle":null,"AudioSpatialFormat":0,"LocalizedUndefined":"Undefined","LocalizedDefault":"Default","LocalizedForced":"Forced","LocalizedExternal":"External","LocalizedHearingImpaired":"Hearing Impaired","DisplayTitle":"Simplified - Chinese - SUBRIP","NalLengthSize":null,"IsInterlaced":false,"IsAVC":false,"ChannelLayout":null,"BitRate":null,"BitDepth":null,"RefFrames":null,"PacketLength":null,"Channels":null,"SampleRate":null,"IsDefault":false,"IsForced":false,"IsHearingImpaired":false,"Height":0,"Width":0,"AverageFrameRate":null,"RealFrameRate":null,"ReferenceFrameRate":null,"Profile":null,"Type":2,"AspectRatio":null,"Index":22,"Score":null,"IsExternal":false,"DeliveryMethod":null,"DeliveryUrl":null,"IsExternalUrl":null,"IsTextSubtitleStream":true,"SupportsExternalStream":true,"Path":null,"PixelFormat":null,"Level":0,"IsAnamorphic":null},{"Codec":"subrip","CodecTag":null,"Language":"zho","ColorRange":null,"ColorSpace":null,"ColorTransfer":null,"ColorPrimaries":null,"DvVersionMajor":null,"DvVersionMinor":null,"DvProfile":null,"DvLevel":null,"RpuPresentFlag":null,"ElPresentFlag":null,"BlPresentFlag":null,"DvBlSignalCompatibilityId":null,"Rotation":null,"Comment":null,"TimeBase":"1/1000","CodecTimeBase":null,"Title":"Traditional","Hdr10PlusPresentFlag":null,"VideoRange":0,"VideoRangeType":0,"VideoDoViTitle":null,"AudioSpatialFormat":0,"LocalizedUndefined":"Undefined","LocalizedDefault":"Default","LocalizedForced":"Forced","LocalizedExternal":"External","LocalizedHearingImpaired":"Hearing Impaired","DisplayTitle":"Traditional - Chinese - SUBRIP","NalLengthSize":null,"IsInterlaced":false,"IsAVC":false,"ChannelLayout":null,"BitRate":null,"BitDepth":null,"RefFrames":null,"PacketLength":null,"Channels":null,"SampleRate":null,"IsDefault":false,"IsForced":false,"IsHearingImpaired":false,"Height":0,"Width":0,"AverageFrameRate":null,"RealFrameRate":null,"ReferenceFrameRate":null,"Profile":null,"Type":2,"AspectRatio":null,"Index":23,"Score":null,"IsExternal":false,"DeliveryMethod":null,"DeliveryUrl":null,"IsExternalUrl":null,"IsTextSubtitleStream":true,"SupportsExternalStream":true,"Path":null,"PixelFormat":null,"Level":0,"IsAnamorphic":null}],"MediaAttachments":[],"Formats":[],"Bitrate":7068113,"FallbackMaxStreamingBitrate":null,"Timestamp":null,"RequiredHttpHeaders":{},"TranscodingUrl":null,"TranscodingSubProtocol":0,"TranscodingContainer":null,"AnalyzeDurationMs":null,"DefaultAudioStreamIndex":null,"DefaultSubtitleStreamIndex":null,"HasSegments":false}

/usr/lib/jellyfin-ffmpeg/ffmpeg -analyzeduration 200M -probesize 1G -fflags +genpts  -i file:"/data/tvshows/American Dad!/American Dad S01E05 Roger Codger 1080p DSNP WEB-DL DDP5 1 H 264-playWEB [ UIndex.org ].mkv" -map_metadata -1 -map_chapters -1 -threads 0 -map 0:0 -map 0:1 -map -0:s -codec:v:0 copy -bsf:v h264_mp4toannexb -start_at_zero -codec:a:0 libfdk_aac -ac 2 -ab 256000 -af "volume=2" -copyts -avoid_negative_ts disabled -max_muxing_queue_size 2048 -f hls -max_delay 5000000 -hls_time 6 -hls_segment_type fmp4 -hls_fmp4_init_filename "423909fc6d1939878f12d866761d37e7-1.mp4" -start_number 0 -hls_segment_filename "/config/cache/transcodes/423909fc6d1939878f12d866761d37e7%d.mp4" -hls_playlist_type vod -hls_list_size 0 -hls_segment_options movflags=+frag_discont -y "/config/cache/transcodes/423909fc6d1939878f12d866761d37e7.m3u8"


ffmpeg version 7.1.3-Jellyfin Copyright (c) 2000-2025 the FFmpeg developers
  built with gcc 13 (Ubuntu 13.3.0-6ubuntu2~24.04.1)
  configuration: --prefix=/usr/lib/jellyfin-ffmpeg --target-os=linux --extra-version=Jellyfin --disable-doc --disable-ffplay --disable-static --disable-libxcb --disable-sdl2 --disable-xlib --enable-lto=auto --enable-gpl --enable-version3 --enable-shared --enable-gmp --enable-gnutls --enable-chromaprint --enable-opencl --enable-libdrm --enable-libxml2 --enable-libass --enable-libfreetype --enable-libfribidi --enable-libfontconfig --enable-libharfbuzz --enable-libbluray --enable-libmp3lame --enable-libopus --enable-libtheora --enable-libvorbis --enable-libopenmpt --enable-libdav1d --enable-libsvtav1 --enable-libwebp --enable-libvpx --enable-libx264 --enable-libx265 --enable-libzvbi --enable-libzimg --enable-libfdk-aac --arch=amd64 --enable-libshaderc --enable-libplacebo --enable-vulkan --enable-vaapi --enable-amf --enable-libvpl --enable-ffnvcodec --enable-cuda --enable-cuda-llvm --enable-cuvid --enable-nvdec --enable-nvenc
  libavutil      59. 39.100 / 59. 39.100
  libavcodec     61. 19.101 / 61. 19.101
  libavformat    61.  7.100 / 61.  7.100
  libavdevice    61.  3.100 / 61.  3.100
  libavfilter    10.  4.100 / 10.  4.100
  libswscale      8.  3.100 /  8.  3.100
  libswresample   5.  3.100 /  5.  3.100
  libpostproc    58.  3.100 / 58.  3.100
Input #0, matroska,webm, from 'file:/data/tvshows/American Dad!/American Dad S01E05 Roger Codger 1080p DSNP WEB-DL DDP5 1 H 264-playWEB [ UIndex.org ].mkv':
  Metadata:
    encoder         : libebml v1.4.2 + libmatroska v1.6.4
    creation_time   : 2022-06-11T08:43:11.000000Z
  Duration: 00:21:57.95, start: 0.000000, bitrate: 6812 kb/s
  Chapters:
    Chapter #0:0: start 0.041000, end 30.030000
      Metadata:
        title           : Intro
    Chapter #0:1: start 30.030000, end 1279.279000
      Metadata:
        title           : Chapter 02
    Chapter #0:2: start 1279.279000, end 1317.952000
      Metadata:
        title           : Credits
  Stream #0:0(eng): Video: h264 (High), yuv420p(tv, bt709, progressive), 1920x1080 [SAR 1:1 DAR 16:9], 23.98 fps, 23.98 tbr, 1k tbn (default) (original)
      Metadata:
        BPS             : 6550261
        DURATION        : 00:21:57.942000000
        NUMBER_OF_FRAMES: 31599
        NUMBER_OF_BYTES : 1079108020
        _STATISTICS_WRITING_APP: mkvmerge v68.0.0 ('The Curtain') 64-bit
        _STATISTICS_WRITING_DATE_UTC: 2022-06-11 08:43:11
        _STATISTICS_TAGS: BPS DURATION NUMBER_OF_FRAMES NUMBER_OF_BYTES
  Stream #0:1(eng): Audio: eac3, 48000 Hz, 5.1(side), fltp, 256 kb/s (default) (original)
      Metadata:
        BPS             : 256000
        DURATION        : 00:21:57.952000000
        NUMBER_OF_FRAMES: 41186
        NUMBER_OF_BYTES : 42174464
        _STATISTICS_WRITING_APP: mkvmerge v68.0.0 ('The Curtain') 64-bit
        _STATISTICS_WRITING_DATE_UTC: 2022-06-11 08:43:11
        _STATISTICS_TAGS: BPS DURATION NUMBER_OF_FRAMES NUMBER_OF_BYTES
  Stream #0:2(eng): Subtitle: subrip (srt) (original)
      Metadata:
        BPS             : 96
        DURATION        : 00:21:51.209000000
        NUMBER_OF_FRAMES: 383
        NUMBER_OF_BYTES : 15837
        _STATISTICS_WRITING_APP: mkvmerge v68.0.0 ('The Curtain') 64-bit
        _STATISTICS_WRITING_DATE_UTC: 2022-06-11 08:43:11
        _STATISTICS_TAGS: BPS DURATION NUMBER_OF_FRAMES NUMBER_OF_BYTES
  Stream #0:3(eng): Subtitle: subrip (srt) (original) (hearing impaired)
      Metadata:
        title           : SDH
        BPS             : 102
        DURATION        : 00:21:51.209000000
        NUMBER_OF_FRAMES: 404
        NUMBER_OF_BYTES : 16832
        _STATISTICS_WRITING_APP: mkvmerge v68.0.0 ('The Curtain') 64-bit
        _STATISTICS_WRITING_DATE_UTC: 2022-06-11 08:43:11
        _STATISTICS_TAGS: BPS DURATION NUMBER_OF_FRAMES NUMBER_OF_BYTES
  Stream #0:4(dan): Subtitle: subrip (srt)
      Metadata:
        BPS             : 89
        DURATION        : 00:20:59.750000000
        NUMBER_OF_FRAMES: 303
        NUMBER_OF_BYTES : 14027
        _STATISTICS_WRITING_APP: mkvmerge v68.0.0 ('The Curtain') 64-bit
        _STATISTICS_WRITING_DATE_UTC: 2022-06-11 08:43:11
        _STATISTICS_TAGS: BPS DURATION NUMBER_OF_FRAMES NUMBER_OF_BYTES
  Stream #0:5(ger): Subtitle: subrip (srt)
      Metadata:
        BPS             : 91
        DURATION        : 00:21:41.792000000
        NUMBER_OF_FRAMES: 324
        NUMBER_OF_BYTES : 14823
        _STATISTICS_WRITING_APP: mkvmerge v68.0.0 ('The Curtain') 64-bit
        _STATISTICS_WRITING_DATE_UTC: 2022-06-11 08:43:11
        _STATISTICS_TAGS: BPS DURATION NUMBER_OF_FRAMES NUMBER_OF_BYTES
  Stream #0:6(gre): Subtitle: subrip (srt)
      Metadata:
        BPS             : 139
        DURATION        : 00:21:12.083000000
        NUMBER_OF_FRAMES: 337
        NUMBER_OF_BYTES : 22103
        _STATISTICS_WRITING_APP: mkvmerge v68.0.0 ('The Curtain') 64-bit
        _STATISTICS_WRITING_DATE_UTC: 2022-06-11 08:43:11
        _STATISTICS_TAGS: BPS DURATION NUMBER_OF_FRAMES NUMBER_OF_BYTES
  Stream #0:7(spa): Subtitle: subrip (srt)
      Metadata:
        title           : Latin America
        BPS             : 95
        DURATION        : 00:21:53.000000000
        NUMBER_OF_FRAMES: 386
        NUMBER_OF_BYTES : 15747
        _STATISTICS_WRITING_APP: mkvmerge v68.0.0 ('The Curtain') 64-bit
        _STATISTICS_WRITING_DATE_UTC: 2022-06-11 08:43:11
        _STATISTICS_TAGS: BPS DURATION NUMBER_OF_FRAMES NUMBER_OF_BYTES
  Stream #0:8(spa): Subtitle: subrip (srt)
      Metadata:
        BPS             : 86
        DURATION        : 00:21:38.000000000
        NUMBER_OF_FRAMES: 304
        NUMBER_OF_BYTES : 14043
        _STATISTICS_WRITING_APP: mkvmerge v68.0.0 ('The Curtain') 64-bit
        _STATISTICS_WRITING_DATE_UTC: 2022-06-11 08:43:11
        _STATISTICS_TAGS: BPS DURATION NUMBER_OF_FRAMES NUMBER_OF_BYTES
  Stream #0:9(fin): Subtitle: subrip (srt)
      Metadata:
        BPS             : 91
        DURATION        : 00:20:59.667000000
        NUMBER_OF_FRAMES: 303
        NUMBER_OF_BYTES : 14357
        _STATISTICS_WRITING_APP: mkvmerge v68.0.0 ('The Curtain') 64-bit
        _STATISTICS_WRITING_DATE_UTC: 2022-06-11 08:43:11
        _STATISTICS_TAGS: BPS DURATION NUMBER_OF_FRAMES NUMBER_OF_BYTES
  Stream #0:10(fre): Subtitle: subrip (srt)
      Metadata:
        BPS             : 111
        DURATION        : 00:21:51.249000000
        NUMBER_OF_FRAMES: 438
        NUMBER_OF_BYTES : 18268
        _STATISTICS_WRITING_APP: mkvmerge v68.0.0 ('The Curtain') 64-bit
        _STATISTICS_WRITING_DATE_UTC: 2022-06-11 08:43:11
        _STATISTICS_TAGS: BPS DURATION NUMBER_OF_FRAMES NUMBER_OF_BYTES
  Stream #0:11(hun): Subtitle: subrip (srt)
      Metadata:
        BPS             : 88
        DURATION        : 00:21:50.935000000
        NUMBER_OF_FRAMES: 388
        NUMBER_OF_BYTES : 14458
        _STATISTICS_WRITING_APP: mkvmerge v68.0.0 ('The Curtain') 64-bit
        _STATISTICS_WRITING_DATE_UTC: 2022-06-11 08:43:11
        _STATISTICS_TAGS: BPS DURATION NUMBER_OF_FRAMES NUMBER_OF_BYTES
  Stream #0:12(ita): Subtitle: subrip (srt)
      Metadata:
        BPS             : 101
        DURATION        : 00:21:51.167000000
        NUMBER_OF_FRAMES: 395
        NUMBER_OF_BYTES : 16663
        _STATISTICS_WRITING_APP: mkvmerge v68.0.0 ('The Curtain') 64-bit
        _STATISTICS_WRITING_DATE_UTC: 2022-06-11 08:43:11
        _STATISTICS_TAGS: BPS DURATION NUMBER_OF_FRAMES NUMBER_OF_BYTES
  Stream #0:13(jpn): Subtitle: subrip (srt)
      Metadata:
        BPS             : 77
        DURATION        : 00:21:42.426000000
        NUMBER_OF_FRAMES: 413
        NUMBER_OF_BYTES : 12664
        _STATISTICS_WRITING_APP: mkvmerge v68.0.0 ('The Curtain') 64-bit
        _STATISTICS_WRITING_DATE_UTC: 2022-06-11 08:43:11
        _STATISTICS_TAGS: BPS DURATION NUMBER_OF_FRAMES NUMBER_OF_BYTES
  Stream #0:14(kor): Subtitle: subrip (srt)
      Metadata:
        BPS             : 94
        DURATION        : 00:21:51.208000000
        NUMBER_OF_FRAMES: 407
        NUMBER_OF_BYTES : 15469
        _STATISTICS_WRITING_APP: mkvmerge v68.0.0 ('The Curtain') 64-bit
        _STATISTICS_WRITING_DATE_UTC: 2022-06-11 08:43:11
        _STATISTICS_TAGS: BPS DURATION NUMBER_OF_FRAMES NUMBER_OF_BYTES
  Stream #0:15(dut): Subtitle: subrip (srt)
      Metadata:
        BPS             : 77
        DURATION        : 00:21:38.000000000
        NUMBER_OF_FRAMES: 297
        NUMBER_OF_BYTES : 12584
        _STATISTICS_WRITING_APP: mkvmerge v68.0.0 ('The Curtain') 64-bit
        _STATISTICS_WRITING_DATE_UTC: 2022-06-11 08:43:11
        _STATISTICS_TAGS: BPS DURATION NUMBER_OF_FRAMES NUMBER_OF_BYTES
  Stream #0:16(nor): Subtitle: subrip (srt)
      Metadata:
        BPS             : 88
        DURATION        : 00:20:58.542000000
        NUMBER_OF_FRAMES: 301
        NUMBER_OF_BYTES : 13936
        _STATISTICS_WRITING_APP: mkvmerge v68.0.0 ('The Curtain') 64-bit
        _STATISTICS_WRITING_DATE_UTC: 2022-06-11 08:43:11
        _STATISTICS_TAGS: BPS DURATION NUMBER_OF_FRAMES NUMBER_OF_BYTES
  Stream #0:17(pol): Subtitle: subrip (srt)
      Metadata:
        BPS             : 84
        DURATION        : 00:21:50.875000000
        NUMBER_OF_FRAMES: 392
        NUMBER_OF_BYTES : 13767
        _STATISTICS_WRITING_APP: mkvmerge v68.0.0 ('The Curtain') 64-bit
        _STATISTICS_WRITING_DATE_UTC: 2022-06-11 08:43:11
        _STATISTICS_TAGS: BPS DURATION NUMBER_OF_FRAMES NUMBER_OF_BYTES
  Stream #0:18(por): Subtitle: subrip (srt)
      Metadata:
        title           : Brazil
        BPS             : 86
        DURATION        : 00:21:50.833000000
        NUMBER_OF_FRAMES: 388
        NUMBER_OF_BYTES : 14172
        _STATISTICS_WRITING_APP: mkvmerge v68.0.0 ('The Curtain') 64-bit
        _STATISTICS_WRITING_DATE_UTC: 2022-06-11 08:43:11
        _STATISTICS_TAGS: BPS DURATION NUMBER_OF_FRAMES NUMBER_OF_BYTES
  Stream #0:19(rum): Subtitle: subrip (srt)
      Metadata:
        BPS             : 88
        DURATION        : 00:21:52.916000000
        NUMBER_OF_FRAMES: 372
        NUMBER_OF_BYTES : 14598
        _STATISTICS_WRITING_APP: mkvmerge v68.0.0 ('The Curtain') 64-bit
        _STATISTICS_WRITING_DATE_UTC: 2022-06-11 08:43:11
        _STATISTICS_TAGS: BPS DURATION NUMBER_OF_FRAMES NUMBER_OF_BYTES
  Stream #0:20(swe): Subtitle: subrip (srt)
      Metadata:
        BPS             : 81
        DURATION        : 00:20:58.542000000
        NUMBER_OF_FRAMES: 300
        NUMBER_OF_BYTES : 12754
        _STATISTICS_WRITING_APP: mkvmerge v68.0.0 ('The Curtain') 64-bit
        _STATISTICS_WRITING_DATE_UTC: 2022-06-11 08:43:11
        _STATISTICS_TAGS: BPS DURATION NUMBER_OF_FRAMES NUMBER_OF_BYTES
  Stream #0:21(tur): Subtitle: subrip (srt)
      Metadata:
        BPS             : 96
        DURATION        : 00:21:50.916000000
        NUMBER_OF_FRAMES: 394
        NUMBER_OF_BYTES : 15774
        _STATISTICS_WRITING_APP: mkvmerge v68.0.0 ('The Curtain') 64-bit
        _STATISTICS_WRITING_DATE_UTC: 2022-06-11 08:43:11
        _STATISTICS_TAGS: BPS DURATION NUMBER_OF_FRAMES NUMBER_OF_BYTES
  Stream #0:22(chi): Subtitle: subrip (srt)
      Metadata:
        title           : Simplified
        BPS             : 89
        DURATION        : 00:21:51.208000000
        NUMBER_OF_FRAMES: 404
        NUMBER_OF_BYTES : 14690
        _STATISTICS_WRITING_APP: mkvmerge v68.0.0 ('The Curtain') 64-bit
        _STATISTICS_WRITING_DATE_UTC: 2022-06-11 08:43:11
        _STATISTICS_TAGS: BPS DURATION NUMBER_OF_FRAMES NUMBER_OF_BYTES
  Stream #0:23(chi): Subtitle: subrip (srt)
      Metadata:
        title           : Traditional
        BPS             : 90
        DURATION        : 00:21:51.208000000
        NUMBER_OF_FRAMES: 406
        NUMBER_OF_BYTES : 14775
        _STATISTICS_WRITING_APP: mkvmerge v68.0.0 ('The Curtain') 64-bit
        _STATISTICS_WRITING_DATE_UTC: 2022-06-11 08:43:11
        _STATISTICS_TAGS: BPS DURATION NUMBER_OF_FRAMES NUMBER_OF_BYTES
Stream mapping:
  Stream #0:0 -> #0:0 (copy)
  Stream #0:1 -> #0:1 (eac3 (native) -> aac (libfdk_aac))
Press [q] to stop, [?] for help
[hls @ 0x55e0bf08cd80] Opening '/config/cache/transcodes/423909fc6d1939878f12d866761d37e7-1.mp4' for writing
Output #0, hls, to '/config/cache/transcodes/423909fc6d1939878f12d866761d37e7.m3u8':
  Metadata:
    encoder         : Lavf61.7.100
  Stream #0:0: Video: h264 (High), yuv420p(tv, bt709, progressive), 1920x1080 [SAR 1:1 DAR 16:9], q=2-31, 23.98 fps, 23.98 tbr, 16k tbn (default) (original)
  Stream #0:1: Audio: aac, 48000 Hz, stereo, s16, 256 kb/s (default) (original)
      Metadata:
        encoder         : Lavc61.19.101 libfdk_aac
      Side data:
        cpb: bitrate max/min/avg: 256000/256000/256000 buffer size: 0 vbv_delay: N/A
[hls @ 0x55e0bf08cd80] Opening '/config/cache/transcodes/423909fc6d1939878f12d866761d37e70.mp4' for writing
[hls @ 0x55e0bf08cd80] Opening '/config/cache/transcodes/423909fc6d1939878f12d866761d37e71.mp4' for writing
[hls @ 0x55e0bf08cd80] Opening '/config/cache/transcodes/423909fc6d1939878f12d866761d37e72.mp4' for writing
[hls @ 0x55e0bf08cd80] Opening '/config/cache/transcodes/423909fc6d1939878f12d866761d37e73.mp4' for writing
[hls @ 0x55e0bf08cd80] Opening '/config/cache/transcodes/423909fc6d1939878f12d866761d37e74.mp4' for writing
[hls @ 0x55e0bf08cd80] Opening '/config/cache/transcodes/423909fc6d1939878f12d866761d37e75.mp4' for writing
[hls @ 0x55e0bf08cd80] Opening '/config/cache/transcodes/423909fc6d1939878f12d866761d37e76.mp4' for writing
[hls @ 0x55e0bf08cd80] Opening '/config/cache/transcodes/423909fc6d1939878f12d866761d37e77.mp4' for writing
frame= 1196 fps=0.0 q=-1.0 size=N/A time=00:00:00.00 bitrate=N/A speed=   0x    
[hls @ 0x55e0bf08cd80] Opening '/config/cache/transcodes/423909fc6d1939878f12d866761d37e78.mp4' for writing
[hls @ 0x55e0bf08cd80] Opening '/config/cache/transcodes/423909fc6d1939878f12d866761d37e79.mp4' for writing
[hls @ 0x55e0bf08cd80] Opening '/config/cache/transcodes/423909fc6d1939878f12d866761d37e710.mp4' for writing
[hls @ 0x55e0bf08cd80] Opening '/config/cache/transcodes/423909fc6d1939878f12d866761d37e711.mp4' for writing
[hls @ 0x55e0bf08cd80] Opening '/config/cache/transcodes/423909fc6d1939878f12d866761d37e712.mp4' for writing
[hls @ 0x55e0bf08cd80] Opening '/config/cache/transcodes/423909fc6d1939878f12d866761d37e713.mp4' for writing
[hls @ 0x55e0bf08cd80] Opening '/config/cache/transcodes/423909fc6d1939878f12d866761d37e714.mp4' for writing
[hls @ 0x55e0bf08cd80] Opening '/config/cache/transcodes/423909fc6d1939878f12d866761d37e715.mp4' for writing
[hls @ 0x55e0bf08cd80] Opening '/config/cache/transcodes/423909fc6d1939878f12d866761d37e716.mp4' for writing
frame= 2478 fps=2474 q=-1.0 size=N/A time=00:00:53.56 bitrate=N/A speed=53.5x    
[hls @ 0x55e0bf08cd80] Opening '/config/cache/transcodes/423909fc6d1939878f12d866761d37e717.mp4' for writing
[hls @ 0x55e0bf08cd80] Opening '/config/cache/transcodes/423909fc6d1939878f12d866761d37e718.mp4' for writing
[hls @ 0x55e0bf08cd80] Opening '/config/cache/transcodes/423909fc6d1939878f12d866761d37e719.mp4' for writing
[hls @ 0x55e0bf08cd80] Opening '/config/cache/transcodes/423909fc6d1939878f12d866761d37e720.mp4' for writing
[hls @ 0x55e0bf08cd80] Opening '/config/cache/transcodes/423909fc6d1939878f12d866761d37e721.mp4' for writing
[hls @ 0x55e0bf08cd80] Opening '/config/cache/transcodes/423909fc6d1939878f12d866761d37e722.mp4' for writing
[hls @ 0x55e0bf08cd80] Opening '/config/cache/transcodes/423909fc6d1939878f12d866761d37e723.mp4' for writing
[hls @ 0x55e0bf08cd80] Opening '/config/cache/transcodes/423909fc6d1939878f12d866761d37e724.mp4' for writing
[hls @ 0x55e0bf08cd80] Opening '/config/cache/transcodes/423909fc6d1939878f12d866761d37e725.mp4' for writing
frame= 3857 fps=2567 q=-1.0 size=N/A time=00:01:51.04 bitrate=N/A speed=73.9x    
[hls @ 0x55e0bf08cd80] Opening '/config/cache/transcodes/423909fc6d1939878f12d866761d37e726.mp4' for writing
[hls @ 0x55e0bf08cd80] Opening '/config/cache/transcodes/423909fc6d1939878f12d866761d37e727.mp4' for writing
[hls @ 0x55e0bf08cd80] Opening '/config/cache/transcodes/423909fc6d1939878f12d866761d37e728.mp4' for writing
[hls @ 0x55e0bf08cd80] Opening '/config/cache/transcodes/423909fc6d1939878f12d866761d37e729.mp4' for writing
[hls @ 0x55e0bf08cd80] Opening '/config/cache/transcodes/423909fc6d1939878f12d866761d37e730.mp4' for writing
[hls @ 0x55e0bf08cd80] Opening '/config/cache/transcodes/423909fc6d1939878f12d866761d37e731.mp4' for writing
[hls @ 0x55e0bf08cd80] Opening '/config/cache/transcodes/423909fc6d1939878f12d866761d37e732.mp4' for writing
[hls @ 0x55e0bf08cd80] Opening '/config/cache/transcodes/423909fc6d1939878f12d866761d37e733.mp4' for writing
[hls @ 0x55e0bf08cd80] Opening '/config/cache/transcodes/423909fc6d1939878f12d866761d37e734.mp4' for writing
frame= 5119 fps=2555 q=-1.0 size=N/A time=00:02:43.69 bitrate=N/A speed=81.7x    
[hls @ 0x55e0bf08cd80] Opening '/config/cache/transcodes/423909fc6d1939878f12d866761d37e735.mp4' for writing
[hls @ 0x55e0bf08cd80] Opening '/config/cache/transcodes/423909fc6d1939878f12d866761d37e736.mp4' for writing
[hls @ 0x55e0bf08cd80] Opening '/config/cache/transcodes/423909fc6d1939878f12d866761d37e737.mp4' for writing
[hls @ 0x55e0bf08cd80] Opening '/config/cache/transcodes/423909fc6d1939878f12d866761d37e738.mp4' for writing
[hls @ 0x55e0bf08cd80] Opening '/config/cache/transcodes/423909fc6d1939878f12d866761d37e739.mp4' for writing
[hls @ 0x55e0bf08cd80] Opening '/config/cache/transcodes/423909fc6d1939878f12d866761d37e740.mp4' for writing
[hls @ 0x55e0bf08cd80] Opening '/config/cache/transcodes/423909fc6d1939878f12d866761d37e741.mp4' for writing
[hls @ 0x55e0bf08cd80] Opening '/config/cache/transcodes/423909fc6d1939878f12d866761d37e742.mp4' for writing
[hls @ 0x55e0bf08cd80] Opening '/config/cache/transcodes/423909fc6d1939878f12d866761d37e743.mp4' for writing
[hls @ 0x55e0bf08cd80] Opening '/config/cache/transcodes/423909fc6d1939878f12d866761d37e744.mp4' for writing
frame= 6584 fps=2629 q=-1.0 size=N/A time=00:03:44.76 bitrate=N/A speed=89.7x    
[hls @ 0x55e0bf08cd80] Opening '/config/cache/transcodes/423909fc6d1939878f12d866761d37e745.mp4' for writing
[hls @ 0x55e0bf08cd80] Opening '/config/cache/transcodes/423909fc6d1939878f12d866761d37e746.mp4' for writing
[hls @ 0x55e0bf08cd80] Opening '/config/cache/transcodes/423909fc6d1939878f12d866761d37e747.mp4' for writing
[hls @ 0x55e0bf08cd80] Opening '/config/cache/transcodes/423909fc6d1939878f12d866761d37e748.mp4' for writing
[hls @ 0x55e0bf08cd80] Opening '/config/cache/transcodes/423909fc6d1939878f12d866761d37e749.mp4' for writing
[hls @ 0x55e0bf08cd80] Opening '/config/cache/transcodes/423909fc6d1939878f12d866761d37e750.mp4' for writing
[hls @ 0x55e0bf08cd80] Opening '/config/cache/transcodes/423909fc6d1939878f12d866761d37e751.mp4' for writing
[hls @ 0x55e0bf08cd80] Opening '/config/cache/transcodes/423909fc6d1939878f12d866761d37e752.mp4' for writing
[hls @ 0x55e0bf08cd80] Opening '/config/cache/transcodes/423909fc6d1939878f12d866761d37e753.mp4' for writing
[hls @ 0x55e0bf08cd80] Opening '/config/cache/transcodes/423909fc6d1939878f12d866761d37e754.mp4' for writing
frame= 7985 fps=2657 q=-1.0 size=N/A time=00:04:43.32 bitrate=N/A speed=94.3x    
[hls @ 0x55e0bf08cd80] Opening '/config/cache/transcodes/423909fc6d1939878f12d866761d37e755.mp4' for writing
[hls @ 0x55e0bf08cd80] Opening '/config/cache/transcodes/423909fc6d1939878f12d866761d37e756.mp4' for writing
[hls @ 0x55e0bf08cd80] Opening '/config/cache/transcodes/423909fc6d1939878f12d866761d37e757.mp4' for writing
[hls @ 0x55e0bf08cd80] Opening '/config/cache/transcodes/423909fc6d1939878f12d866761d37e758.mp4' for writing
[hls @ 0x55e0bf08cd80] Opening '/config/cache/transcodes/423909fc6d1939878f12d866761d37e759.mp4' for writing
[hls @ 0x55e0bf08cd80] Opening '/config/cache/transcodes/423909fc6d1939878f12d866761d37e760.mp4' for writing
[hls @ 0x55e0bf08cd80] Opening '/config/cache/transcodes/423909fc6d1939878f12d866761d37e761.mp4' for writing
[hls @ 0x55e0bf08cd80] Opening '/config/cache/transcodes/423909fc6d1939878f12d866761d37e762.mp4' for writing
[hls @ 0x55e0bf08cd80] Opening '/config/cache/transcodes/423909fc6d1939878f12d866761d37e763.mp4' for writing
[hls @ 0x55e0bf08cd80] Opening '/config/cache/transcodes/423909fc6d1939878f12d866761d37e764.mp4' for writing
frame= 9393 fps=2679 q=-1.0 size=N/A time=00:05:41.95 bitrate=N/A speed=97.5x    
[hls @ 0x55e0bf08cd80] Opening '/config/cache/transcodes/423909fc6d1939878f12d866761d37e765.mp4' for writing
[hls @ 0x55e0bf08cd80] Opening '/config/cache/transcodes/423909fc6d1939878f12d866761d37e766.mp4' for writing
[hls @ 0x55e0bf08cd80] Opening '/config/cache/transcodes/423909fc6d1939878f12d866761d37e767.mp4' for writing
[hls @ 0x55e0bf08cd80] Opening '/config/cache/transcodes/423909fc6d1939878f12d866761d37e768.mp4' for writing
[hls @ 0x55e0bf08cd80] Opening '/config/cache/transcodes/423909fc6d1939878f12d866761d37e769.mp4' for writing
[hls @ 0x55e0bf08cd80] Opening '/config/cache/transcodes/423909fc6d1939878f12d866761d37e770.mp4' for writing
[hls @ 0x55e0bf08cd80] Opening '/config/cache/transcodes/423909fc6d1939878f12d866761d37e771.mp4' for writing
[hls @ 0x55e0bf08cd80] Opening '/config/cache/transcodes/423909fc6d1939878f12d866761d37e772.mp4' for writing
[hls @ 0x55e0bf08cd80] Opening '/config/cache/transcodes/423909fc6d1939878f12d866761d37e773.mp4' for writing
frame=10695 fps=2669 q=-1.0 size=N/A time=00:06:36.26 bitrate=N/A speed=98.9x    
[hls @ 0x55e0bf08cd80] Opening '/config/cache/transcodes/423909fc6d1939878f12d866761d37e774.mp4' for writing
[hls @ 0x55e0bf08cd80] Opening '/config/cache/transcodes/423909fc6d1939878f12d866761d37e775.mp4' for writing
[hls @ 0x55e0bf08cd80] Opening '/config/cache/transcodes/423909fc6d1939878f12d866761d37e776.mp4' for writing
[hls @ 0x55e0bf08cd80] Opening '/config/cache/transcodes/423909fc6d1939878f12d866761d37e777.mp4' for writing
[hls @ 0x55e0bf08cd80] Opening '/config/cache/transcodes/423909fc6d1939878f12d866761d37e778.mp4' for writing
[hls @ 0x55e0bf08cd80] Opening '/config/cache/transcodes/423909fc6d1939878f12d866761d37e779.mp4' for writing
[hls @ 0x55e0bf08cd80] Opening '/config/cache/transcodes/423909fc6d1939878f12d866761d37e780.mp4' for writing
[hls @ 0x55e0bf08cd80] Opening '/config/cache/transcodes/423909fc6d1939878f12d866761d37e781.mp4' for writing
[hls @ 0x55e0bf08cd80] Opening '/config/cache/transcodes/423909fc6d1939878f12d866761d37e782.mp4' for writing
frame=12019 fps=2666 q=-1.0 size=N/A time=00:07:31.49 bitrate=N/A speed= 100x    
[hls @ 0x55e0bf08cd80] Opening '/config/cache/transcodes/423909fc6d1939878f12d866761d37e783.mp4' for writing
[hls @ 0x55e0bf08cd80] Opening '/config/cache/transcodes/423909fc6d1939878f12d866761d37e784.mp4' for writing
[hls @ 0x55e0bf08cd80] Opening '/config/cache/transcodes/423909fc6d1939878f12d866761d37e785.mp4' for writing
[hls @ 0x55e0bf08cd80] Opening '/config/cache/transcodes/423909fc6d1939878f12d866761d37e786.mp4' for writing
[hls @ 0x55e0bf08cd80] Opening '/config/cache/transcodes/423909fc6d1939878f12d866761d37e787.mp4' for writing
[hls @ 0x55e0bf08cd80] Opening '/config/cache/transcodes/423909fc6d1939878f12d866761d37e788.mp4' for writing
[hls @ 0x55e0bf08cd80] Opening '/config/cache/transcodes/423909fc6d1939878f12d866761d37e789.mp4' for writing
[hls @ 0x55e0bf08cd80] Opening '/config/cache/transcodes/423909fc6d1939878f12d866761d37e790.mp4' for writing
[hls @ 0x55e0bf08cd80] Opening '/config/cache/transcodes/423909fc6d1939878f12d866761d37e791.mp4' for writing
[hls @ 0x55e0bf08cd80] Opening '/config/cache/transcodes/423909fc6d1939878f12d866761d37e792.mp4' for writing
frame=13459 fps=2687 q=-1.0 size=N/A time=00:08:31.42 bitrate=N/A speed= 102x    
[hls @ 0x55e0bf08cd80] Opening '/config/cache/transcodes/423909fc6d1939878f12d866761d37e793.mp4' for writing
[hls @ 0x55e0bf08cd80] Opening '/config/cache/transcodes/423909fc6d1939878f12d866761d37e794.mp4' for writing
[hls @ 0x55e0bf08cd80] Opening '/config/cache/transcodes/423909fc6d1939878f12d866761d37e795.mp4' for writing
[hls @ 0x55e0bf08cd80] Opening '/config/cache/transcodes/423909fc6d1939878f12d866761d37e796.mp4' for writing
[hls @ 0x55e0bf08cd80] Opening '/config/cache/transcodes/423909fc6d1939878f12d866761d37e797.mp4' for writing
[hls @ 0x55e0bf08cd80] Opening '/config/cache/transcodes/423909fc6d1939878f12d866761d37e798.mp4' for writing
[hls @ 0x55e0bf08cd80] Opening '/config/cache/transcodes/423909fc6d1939878f12d866761d37e799.mp4' for writing
[hls @ 0x55e0bf08cd80] Opening '/config/cache/transcodes/423909fc6d1939878f12d866761d37e7100.mp4' for writing
[hls @ 0x55e0bf08cd80] Opening '/config/cache/transcodes/423909fc6d1939878f12d866761d37e7101.mp4' for writing
[hls @ 0x55e0bf08cd80] Opening '/config/cache/transcodes/423909fc6d1939878f12d866761d37e7102.mp4' for writing
frame=14915 fps=2707 q=-1.0 size=N/A time=00:09:32.28 bitrate=N/A speed= 104x    
[hls @ 0x55e0bf08cd80] Opening '/config/cache/transcodes/423909fc6d1939878f12d866761d37e7103.mp4' for writing
[hls @ 0x55e0bf08cd80] Opening '/config/cache/transcodes/423909fc6d1939878f12d866761d37e7104.mp4' for writing
[hls @ 0x55e0bf08cd80] Opening '/config/cache/transcodes/423909fc6d1939878f12d866761d37e7105.mp4' for writing
[hls @ 0x55e0bf08cd80] Opening '/config/cache/transcodes/423909fc6d1939878f12d866761d37e7106.mp4' for writing
[hls @ 0x55e0bf08cd80] Opening '/config/cache/transcodes/423909fc6d1939878f12d866761d37e7107.mp4' for writing
[hls @ 0x55e0bf08cd80] Opening '/config/cache/transcodes/423909fc6d1939878f12d866761d37e7108.mp4' for writing
[hls @ 0x55e0bf08cd80] Opening '/config/cache/transcodes/423909fc6d1939878f12d866761d37e7109.mp4' for writing
[hls @ 0x55e0bf08cd80] Opening '/config/cache/transcodes/423909fc6d1939878f12d866761d37e7110.mp4' for writing
[hls @ 0x55e0bf08cd80] Opening '/config/cache/transcodes/423909fc6d1939878f12d866761d37e7111.mp4' for writing
frame=16241 fps=2702 q=-1.0 size=N/A time=00:10:27.56 bitrate=N/A speed= 104x    
[hls @ 0x55e0bf08cd80] Opening '/config/cache/transcodes/423909fc6d1939878f12d866761d37e7112.mp4' for writing
[hls @ 0x55e0bf08cd80] Opening '/config/cache/transcodes/423909fc6d1939878f12d866761d37e7113.mp4' for writing
[hls @ 0x55e0bf08cd80] Opening '/config/cache/transcodes/423909fc6d1939878f12d866761d37e7114.mp4' for writing
[hls @ 0x55e0bf08cd80] Opening '/config/cache/transcodes/423909fc6d1939878f12d866761d37e7115.mp4' for writing
[hls @ 0x55e0bf08cd80] Opening '/config/cache/transcodes/423909fc6d1939878f12d866761d37e7116.mp4' for writing
[hls @ 0x55e0bf08cd80] Opening '/config/cache/transcodes/423909fc6d1939878f12d866761d37e7117.mp4' for writing
[hls @ 0x55e0bf08cd80] Opening '/config/cache/transcodes/423909fc6d1939878f12d866761d37e7118.mp4' for writing
[hls @ 0x55e0bf08cd80] Opening '/config/cache/transcodes/423909fc6d1939878f12d866761d37e7119.mp4' for writing
frame=17383 fps=2669 q=-1.0 size=N/A time=00:11:15.13 bitrate=N/A speed= 104x    
[hls @ 0x55e0bf08cd80] Opening '/config/cache/transcodes/423909fc6d1939878f12d866761d37e7120.mp4' for writing
[hls @ 0x55e0bf08cd80] Opening '/config/cache/transcodes/423909fc6d1939878f12d866761d37e7121.mp4' for writing
[hls @ 0x55e0bf08cd80] Opening '/config/cache/transcodes/423909fc6d1939878f12d866761d37e7122.mp4' for writing
[hls @ 0x55e0bf08cd80] Opening '/config/cache/transcodes/423909fc6d1939878f12d866761d37e7123.mp4' for writing
[hls @ 0x55e0bf08cd80] Opening '/config/cache/transcodes/423909fc6d1939878f12d866761d37e7124.mp4' for writing
[hls @ 0x55e0bf08cd80] Opening '/config/cache/transcodes/423909fc6d1939878f12d866761d37e7125.mp4' for writing
[hls @ 0x55e0bf08cd80] Opening '/config/cache/transcodes/423909fc6d1939878f12d866761d37e7126.mp4' for writing
[hls @ 0x55e0bf08cd80] Opening '/config/cache/transcodes/423909fc6d1939878f12d866761d37e7127.mp4' for writing
[hls @ 0x55e0bf08cd80] Opening '/config/cache/transcodes/423909fc6d1939878f12d866761d37e7128.mp4' for writing
frame=18714 fps=2668 q=-1.0 size=N/A time=00:12:10.53 bitrate=N/A speed= 104x    
[hls @ 0x55e0bf08cd80] Opening '/config/cache/transcodes/423909fc6d1939878f12d866761d37e7129.mp4' for writing
[hls @ 0x55e0bf08cd80] Opening '/config/cache/transcodes/423909fc6d1939878f12d866761d37e7130.mp4' for writing
[hls @ 0x55e0bf08cd80] Opening '/config/cache/transcodes/423909fc6d1939878f12d866761d37e7131.mp4' for writing
[hls @ 0x55e0bf08cd80] Opening '/config/cache/transcodes/423909fc6d1939878f12d866761d37e7132.mp4' for writing
[hls @ 0x55e0bf08cd80] Opening '/config/cache/transcodes/423909fc6d1939878f12d866761d37e7133.mp4' for writing
[hls @ 0x55e0bf08cd80] Opening '/config/cache/transcodes/423909fc6d1939878f12d866761d37e7134.mp4' for writing
[hls @ 0x55e0bf08cd80] Opening '/config/cache/transcodes/423909fc6d1939878f12d866761d37e7135.mp4' for writing
[hls @ 0x55e0bf08cd80] Opening '/config/cache/transcodes/423909fc6d1939878f12d866761d37e7136.mp4' for writing
[hls @ 0x55e0bf08cd80] Opening '/config/cache/transcodes/423909fc6d1939878f12d866761d37e7137.mp4' for writing
[hls @ 0x55e0bf08cd80] Opening '/config/cache/transcodes/423909fc6d1939878f12d866761d37e7138.mp4' for writing
frame=20077 fps=2672 q=-1.0 size=N/A time=00:13:07.49 bitrate=N/A speed= 105x    
[hls @ 0x55e0bf08cd80] Opening '/config/cache/transcodes/423909fc6d1939878f12d866761d37e7139.mp4' for writing
[hls @ 0x55e0bf08cd80] Opening '/config/cache/transcodes/423909fc6d1939878f12d866761d37e7140.mp4' for writing
[hls @ 0x55e0bf08cd80] Opening '/config/cache/transcodes/423909fc6d1939878f12d866761d37e7141.mp4' for writing
[hls @ 0x55e0bf08cd80] Opening '/config/cache/transcodes/423909fc6d1939878f12d866761d37e7142.mp4' for writing
[hls @ 0x55e0bf08cd80] Opening '/config/cache/transcodes/423909fc6d1939878f12d866761d37e7143.mp4' for writing
[hls @ 0x55e0bf08cd80] Opening '/config/cache/transcodes/423909fc6d1939878f12d866761d37e7144.mp4' for writing
[hls @ 0x55e0bf08cd80] Opening '/config/cache/transcodes/423909fc6d1939878f12d866761d37e7145.mp4' for writing
[hls @ 0x55e0bf08cd80] Opening '/config/cache/transcodes/423909fc6d1939878f12d866761d37e7146.mp4' for writing
[hls @ 0x55e0bf08cd80] Opening '/config/cache/transcodes/423909fc6d1939878f12d866761d37e7147.mp4' for writing
frame=21432 fps=2674 q=-1.0 size=N/A time=00:14:04.01 bitrate=N/A speed= 105x    
[hls @ 0x55e0bf08cd80] Opening '/config/cache/transcodes/423909fc6d1939878f12d866761d37e7148.mp4' for writing
[hls @ 0x55e0bf08cd80] Opening '/config/cache/transcodes/423909fc6d1939878f12d866761d37e7149.mp4' for writing
[hls @ 0x55e0bf08cd80] Opening '/config/cache/transcodes/423909fc6d1939878f12d866761d37e7150.mp4' for writing
[hls @ 0x55e0bf08cd80] Opening '/config/cache/transcodes/423909fc6d1939878f12d866761d37e7151.mp4' for writing
[hls @ 0x55e0bf08cd80] Opening '/config/cache/transcodes/423909fc6d1939878f12d866761d37e7152.mp4' for writing
[hls @ 0x55e0bf08cd80] Opening '/config/cache/transcodes/423909fc6d1939878f12d866761d37e7153.mp4' for writing
[hls @ 0x55e0bf08cd80] Opening '/config/cache/transcodes/423909fc6d1939878f12d866761d37e7154.mp4' for writing
[hls @ 0x55e0bf08cd80] Opening '/config/cache/transcodes/423909fc6d1939878f12d866761d37e7155.mp4' for writing
[hls @ 0x55e0bf08cd80] Opening '/config/cache/transcodes/423909fc6d1939878f12d866761d37e7156.mp4' for writing
frame=22663 fps=2661 q=-1.0 size=N/A time=00:14:55.46 bitrate=N/A speed= 105x    
[hls @ 0x55e0bf08cd80] Opening '/config/cache/transcodes/423909fc6d1939878f12d866761d37e7157.mp4' for writing
[hls @ 0x55e0bf08cd80] Opening '/config/cache/transcodes/423909fc6d1939878f12d866761d37e7158.mp4' for writing
[hls @ 0x55e0bf08cd80] Opening '/config/cache/transcodes/423909fc6d1939878f12d866761d37e7159.mp4' for writing
[hls @ 0x55e0bf08cd80] Opening '/config/cache/transcodes/423909fc6d1939878f12d866761d37e7160.mp4' for writing
[hls @ 0x55e0bf08cd80] Opening '/config/cache/transcodes/423909fc6d1939878f12d866761d37e7161.mp4' for writing
[hls @ 0x55e0bf08cd80] Opening '/config/cache/transcodes/423909fc6d1939878f12d866761d37e7162.mp4' for writing
[hls @ 0x55e0bf08cd80] Opening '/config/cache/transcodes/423909fc6d1939878f12d866761d37e7163.mp4' for writing
[hls @ 0x55e0bf08cd80] Opening '/config/cache/transcodes/423909fc6d1939878f12d866761d37e7164.mp4' for writing
[hls @ 0x55e0bf08cd80] Opening '/config/cache/transcodes/423909fc6d1939878f12d866761d37e7165.mp4' for writing
frame=23998 fps=2661 q=-1.0 size=N/A time=00:15:50.95 bitrate=N/A speed= 105x    
[hls @ 0x55e0bf08cd80] Opening '/config/cache/transcodes/423909fc6d1939878f12d866761d37e7166.mp4' for writing
[hls @ 0x55e0bf08cd80] Opening '/config/cache/transcodes/423909fc6d1939878f12d866761d37e7167.mp4' for writing
[hls @ 0x55e0bf08cd80] Opening '/config/cache/transcodes/423909fc6d1939878f12d866761d37e7168.mp4' for writing
[hls @ 0x55e0bf08cd80] Opening '/config/cache/transcodes/423909fc6d1939878f12d866761d37e7169.mp4' for writing
[hls @ 0x55e0bf08cd80] Opening '/config/cache/transcodes/423909fc6d1939878f12d866761d37e7170.mp4' for writing
[hls @ 0x55e0bf08cd80] Opening '/config/cache/transcodes/423909fc6d1939878f12d866761d37e7171.mp4' for writing
[hls @ 0x55e0bf08cd80] Opening '/config/cache/transcodes/423909fc6d1939878f12d866761d37e7172.mp4' for writing
[hls @ 0x55e0bf08cd80] Opening '/config/cache/transcodes/423909fc6d1939878f12d866761d37e7173.mp4' for writing
[hls @ 0x55e0bf08cd80] Opening '/config/cache/transcodes/423909fc6d1939878f12d866761d37e7174.mp4' for writing
[hls @ 0x55e0bf08cd80] Opening '/config/cache/transcodes/423909fc6d1939878f12d866761d37e7175.mp4' for writing
frame=25363 fps=2665 q=-1.0 size=N/A time=00:16:47.95 bitrate=N/A speed= 106x    
[hls @ 0x55e0bf08cd80] Opening '/config/cache/transcodes/423909fc6d1939878f12d866761d37e7176.mp4' for writing
[hls @ 0x55e0bf08cd80] Opening '/config/cache/transcodes/423909fc6d1939878f12d866761d37e7177.mp4' for writing
[hls @ 0x55e0bf08cd80] Opening '/config/cache/transcodes/423909fc6d1939878f12d866761d37e7178.mp4' for writing
[hls @ 0x55e0bf08cd80] Opening '/config/cache/transcodes/423909fc6d1939878f12d866761d37e7179.mp4' for writing
[hls @ 0x55e0bf08cd80] Opening '/config/cache/transcodes/423909fc6d1939878f12d866761d37e7180.mp4' for writing
[hls @ 0x55e0bf08cd80] Opening '/config/cache/transcodes/423909fc6d1939878f12d866761d37e7181.mp4' for writing
[hls @ 0x55e0bf08cd80] Opening '/config/cache/transcodes/423909fc6d1939878f12d866761d37e7182.mp4' for writing
[hls @ 0x55e0bf08cd80] Opening '/config/cache/transcodes/423909fc6d1939878f12d866761d37e7183.mp4' for writing
frame=26627 fps=2658 q=-1.0 size=N/A time=00:17:40.77 bitrate=N/A speed= 106x    
[hls @ 0x55e0bf08cd80] Opening '/config/cache/transcodes/423909fc6d1939878f12d866761d37e7184.mp4' for writing
[hls @ 0x55e0bf08cd80] Opening '/config/cache/transcodes/423909fc6d1939878f12d866761d37e7185.mp4' for writing
[hls @ 0x55e0bf08cd80] Opening '/config/cache/transcodes/423909fc6d1939878f12d866761d37e7186.mp4' for writing
[hls @ 0x55e0bf08cd80] Opening '/config/cache/transcodes/423909fc6d1939878f12d866761d37e7187.mp4' for writing
[hls @ 0x55e0bf08cd80] Opening '/config/cache/transcodes/423909fc6d1939878f12d866761d37e7188.mp4' for writing
[hls @ 0x55e0bf08cd80] Opening '/config/cache/transcodes/423909fc6d1939878f12d866761d37e7189.mp4' for writing
[hls @ 0x55e0bf08cd80] Opening '/config/cache/transcodes/423909fc6d1939878f12d866761d37e7190.mp4' for writing
[hls @ 0x55e0bf08cd80] Opening '/config/cache/transcodes/423909fc6d1939878f12d866761d37e7191.mp4' for writing
frame=27807 fps=2643 q=-1.0 size=N/A time=00:18:29.90 bitrate=N/A speed= 105x    
[hls @ 0x55e0bf08cd80] Opening '/config/cache/transcodes/423909fc6d1939878f12d866761d37e7192.mp4' for writing
[hls @ 0x55e0bf08cd80] Opening '/config/cache/transcodes/423909fc6d1939878f12d866761d37e7193.mp4' for writing
[hls @ 0x55e0bf08cd80] Opening '/config/cache/transcodes/423909fc6d1939878f12d866761d37e7194.mp4' for writing
[hls @ 0x55e0bf08cd80] Opening '/config/cache/transcodes/423909fc6d1939878f12d866761d37e7195.mp4' for writing
[hls @ 0x55e0bf08cd80] Opening '/config/cache/transcodes/423909fc6d1939878f12d866761d37e7196.mp4' for writing
[hls @ 0x55e0bf08cd80] Opening '/config/cache/transcodes/423909fc6d1939878f12d866761d37e7197.mp4' for writing
[hls @ 0x55e0bf08cd80] Opening '/config/cache/transcodes/423909fc6d1939878f12d866761d37e7198.mp4' for writing
[hls @ 0x55e0bf08cd80] Opening '/config/cache/transcodes/423909fc6d1939878f12d866761d37e7199.mp4' for writing
frame=28998 fps=2631 q=-1.0 size=N/A time=00:19:19.57 bitrate=N/A speed= 105x    
[hls @ 0x55e0bf08cd80] Opening '/config/cache/transcodes/423909fc6d1939878f12d866761d37e7200.mp4' for writing
[hls @ 0x55e0bf08cd80] Opening '/config/cache/transcodes/423909fc6d1939878f12d866761d37e7201.mp4' for writing
[hls @ 0x55e0bf08cd80] Opening '/config/cache/transcodes/423909fc6d1939878f12d866761d37e7202.mp4' for writing
[hls @ 0x55e0bf08cd80] Opening '/config/cache/transcodes/423909fc6d1939878f12d866761d37e7203.mp4' for writing
[hls @ 0x55e0bf08cd80] Opening '/config/cache/transcodes/423909fc6d1939878f12d866761d37e7204.mp4' for writing
[hls @ 0x55e0bf08cd80] Opening '/config/cache/transcodes/423909fc6d1939878f12d866761d37e7205.mp4' for writing
[hls @ 0x55e0bf08cd80] Opening '/config/cache/transcodes/423909fc6d1939878f12d866761d37e7206.mp4' for writing
[hls @ 0x55e0bf08cd80] Opening '/config/cache/transcodes/423909fc6d1939878f12d866761d37e7207.mp4' for writing
[hls @ 0x55e0bf08cd80] Opening '/config/cache/transcodes/423909fc6d1939878f12d866761d37e7208.mp4' for writing
[hls @ 0x55e0bf08cd80] Opening '/config/cache/transcodes/423909fc6d1939878f12d866761d37e7209.mp4' for writing
[hls @ 0x55e0bf08cd80] Opening '/config/cache/transcodes/423909fc6d1939878f12d866761d37e7210.mp4' for writing
frame=30385 fps=2637 q=-1.0 size=N/A time=00:20:17.38 bitrate=N/A speed= 106x    
[hls @ 0x55e0bf08cd80] Opening '/config/cache/transcodes/423909fc6d1939878f12d866761d37e7211.mp4' for writing
[hls @ 0x55e0bf08cd80] Opening '/config/cache/transcodes/423909fc6d1939878f12d866761d37e7212.mp4' for writing
[hls @ 0x55e0bf08cd80] Opening '/config/cache/transcodes/423909fc6d1939878f12d866761d37e7213.mp4' for writing
[hls @ 0x55e0bf08cd80] Opening '/config/cache/transcodes/423909fc6d1939878f12d866761d37e7214.mp4' for writing
[hls @ 0x55e0bf08cd80] Opening '/config/cache/transcodes/423909fc6d1939878f12d866761d37e7215.mp4' for writing
[hls @ 0x55e0bf08cd80] Opening '/config/cache/transcodes/423909fc6d1939878f12d866761d37e7216.mp4' for writing
[hls @ 0x55e0bf08cd80] Opening '/config/cache/transcodes/423909fc6d1939878f12d866761d37e7217.mp4' for writing
[hls @ 0x55e0bf08cd80] Opening '/config/cache/transcodes/423909fc6d1939878f12d866761d37e7218.mp4' for writing
[hls @ 0x55e0bf08cd80] Opening '/config/cache/transcodes/423909fc6d1939878f12d866761d37e7219.mp4' for writing
[out#0/hls @ 0x55e0bf06cf40] video:1053817KiB audio:41187KiB subtitle:0KiB other streams:0KiB global headers:0KiB muxing overhead: unknown
frame=31599 fps=2641 q=-1.0 Lsize=N/A time=00:21:08.30 bitrate=N/A speed= 106x    